<svg width="79" height="85" viewBox="0 0 79 85" fill="none" xmlns="http://www.w3.org/2000/svg">
<g filter="url(#filter0_d_242_863)">
<path d="M68.75 73.75L54.6125 58.525M62.25 38.75C62.25 54.214 50.6094 66.75 36.25 66.75C21.8906 66.75 10.25 54.214 10.25 38.75C10.25 23.286 21.8906 10.75 36.25 10.75C50.6094 10.75 62.25 23.286 62.25 38.75Z" stroke="white" stroke-width="4" stroke-linecap="round" stroke-linejoin="round" shape-rendering="crispEdges"/>
</g>
<path d="M29.03 49.25V46.46C30.31 45.4 31.55 44.35 32.75 43.31C33.97 42.27 35.05 41.24 35.99 40.22C36.95 39.2 37.71 38.21 38.27 37.25C38.85 36.27 39.14 35.32 39.14 34.4C39.14 33.54 38.9 32.78 38.42 32.12C37.96 31.46 37.19 31.13 36.11 31.13C35.01 31.13 34.18 31.49 33.62 32.21C33.06 32.93 32.78 33.8 32.78 34.82H29.06C29.1 33.28 29.44 32 30.08 30.98C30.72 29.94 31.57 29.17 32.63 28.67C33.69 28.15 34.88 27.89 36.2 27.89C38.34 27.89 40 28.48 41.18 29.66C42.38 30.82 42.98 32.33 42.98 34.19C42.98 35.35 42.71 36.48 42.17 37.58C41.65 38.68 40.96 39.74 40.1 40.76C39.24 41.78 38.31 42.74 37.31 43.64C36.31 44.52 35.34 45.34 34.4 46.1H43.49V49.25H29.03Z" fill="white"/>
<defs>
<filter id="filter0_d_242_863" x="4.25" y="8.75" width="70.5" height="75" filterUnits="userSpaceOnUse" color-interpolation-filters="sRGB">
<feFlood flood-opacity="0" result="BackgroundImageFix"/>
<feColorMatrix in="SourceAlpha" type="matrix" values="0 0 0 0 0 0 0 0 0 0 0 0 0 0 0 0 0 0 127 0" result="hardAlpha"/>
<feOffset dy="4"/>
<feGaussianBlur stdDeviation="2"/>
<feComposite in2="hardAlpha" operator="out"/>
<feColorMatrix type="matrix" values="0 0 0 0 0 0 0 0 0 0 0 0 0 0 0 0 0 0 0.25 0"/>
<feBlend mode="normal" in2="BackgroundImageFix" result="effect1_dropShadow_242_863"/>
<feBlend mode="normal" in="SourceGraphic" in2="effect1_dropShadow_242_863" result="shape"/>
</filter>
</defs>
</svg>
