<svg width="85" height="91" viewBox="0 0 85 91" fill="none" xmlns="http://www.w3.org/2000/svg">
<g filter="url(#filter0_d_242_922)">
<path d="M6.46289 3.64819L58.6597 17.0294L64.0586 45.7197L46.0694 64.839L19.0748 59.1009L6.46289 3.64819ZM42.4629 68.672L67.6651 41.8867L78.4629 53.3629L53.2607 80.1482L42.4629 68.672Z" stroke="white" stroke-width="4" stroke-linecap="round" stroke-linejoin="round" shape-rendering="crispEdges"/>
</g>
<path d="M35.8885 44.1294C34.5085 44.1294 33.2585 43.8894 32.1385 43.4094C31.0185 42.9094 30.1185 42.1494 29.4385 41.1294C28.7585 40.1094 28.3985 38.8294 28.3585 37.2894H32.1385C32.1585 38.3094 32.4885 39.1694 33.1285 39.8694C33.7885 40.5494 34.7085 40.8894 35.8885 40.8894C37.0085 40.8894 37.8685 40.5794 38.4685 39.9594C39.0685 39.3394 39.3685 38.5594 39.3685 37.6194C39.3685 36.5194 38.9685 35.6894 38.1685 35.1294C37.3885 34.5494 36.3785 34.2594 35.1385 34.2594H33.5785V31.1094H35.1685C36.1885 31.1094 37.0385 30.8694 37.7185 30.3894C38.3985 29.9094 38.7385 29.1994 38.7385 28.2594C38.7385 27.4794 38.4785 26.8594 37.9585 26.3994C37.4585 25.9194 36.7585 25.6794 35.8585 25.6794C34.8785 25.6794 34.1085 25.9694 33.5485 26.5494C33.0085 27.1294 32.7085 27.8394 32.6485 28.6794H28.8985C28.9785 26.7394 29.6485 25.2094 30.9085 24.0894C32.1885 22.9694 33.8385 22.4094 35.8585 22.4094C37.2985 22.4094 38.5085 22.6694 39.4885 23.1894C40.4885 23.6894 41.2385 24.3594 41.7385 25.1994C42.2585 26.0394 42.5185 26.9694 42.5185 27.9894C42.5185 29.1694 42.1885 30.1694 41.5285 30.9894C40.8885 31.7894 40.0885 32.3294 39.1285 32.6094C40.3085 32.8494 41.2685 33.4294 42.0085 34.3494C42.7485 35.2494 43.1185 36.3894 43.1185 37.7694C43.1185 38.9294 42.8385 39.9894 42.2785 40.9494C41.7185 41.9094 40.8985 42.6794 39.8185 43.2594C38.7585 43.8394 37.4485 44.1294 35.8885 44.1294Z" fill="white"/>
<defs>
<filter id="filter0_d_242_922" x="0.462891" y="1.64819" width="84" height="88.5" filterUnits="userSpaceOnUse" color-interpolation-filters="sRGB">
<feFlood flood-opacity="0" result="BackgroundImageFix"/>
<feColorMatrix in="SourceAlpha" type="matrix" values="0 0 0 0 0 0 0 0 0 0 0 0 0 0 0 0 0 0 127 0" result="hardAlpha"/>
<feOffset dy="4"/>
<feGaussianBlur stdDeviation="2"/>
<feComposite in2="hardAlpha" operator="out"/>
<feColorMatrix type="matrix" values="0 0 0 0 0 0 0 0 0 0 0 0 0 0 0 0 0 0 0.25 0"/>
<feBlend mode="normal" in2="BackgroundImageFix" result="effect1_dropShadow_242_922"/>
<feBlend mode="normal" in="SourceGraphic" in2="effect1_dropShadow_242_922" result="shape"/>
</filter>
</defs>
</svg>
