<svg width="66" height="66" viewBox="0 0 66 66" fill="none" xmlns="http://www.w3.org/2000/svg">
<path d="M14.5379 33.0015V20.8636C14.5739 18.4777 15.0804 16.1224 16.0283 13.9325C16.9762 11.7427 18.3469 9.76148 20.0618 8.1023C21.7767 6.44313 23.8021 5.13864 26.0221 4.2636C28.242 3.38855 30.6128 2.96014 32.9985 3.00291C35.3843 2.96014 37.7551 3.38855 39.975 4.2636C42.195 5.13864 44.2204 6.44313 45.9353 8.1023C47.6502 9.76148 49.0209 11.7427 49.9688 13.9325C50.9167 16.1224 51.4231 18.4777 51.4592 20.8636V33.0015M42.2289 57.231C44.6769 57.231 47.0247 56.2586 48.7557 54.5275C50.4867 52.7965 51.4592 50.4488 51.4592 48.0007V37.6166M42.2289 57.231C42.2289 58.7611 41.6211 60.2284 40.5392 61.3103C39.4573 62.3922 37.9899 63 36.4599 63H29.5372C28.0072 63 26.5398 62.3922 25.4579 61.3103C24.376 60.2284 23.7682 58.7611 23.7682 57.231C23.7682 55.701 24.376 54.2337 25.4579 53.1518C26.5398 52.0699 28.0072 51.4621 29.5372 51.4621H36.4599C37.9899 51.4621 39.4573 52.0699 40.5392 53.1518C41.6211 54.2337 42.2289 55.701 42.2289 57.231ZM7.61516 26.0787H12.2303C12.8423 26.0787 13.4293 26.3218 13.862 26.7546C14.2948 27.1873 14.5379 27.7743 14.5379 28.3863V42.2318C14.5379 42.8438 14.2948 43.4307 13.862 43.8635C13.4293 44.2962 12.8423 44.5394 12.2303 44.5394H7.61516C6.39114 44.5394 5.21726 44.0531 4.35175 43.1876C3.48624 42.3221 3 41.1482 3 39.9242V30.6939C3 29.4699 3.48624 28.296 4.35175 27.4305C5.21726 26.565 6.39114 26.0787 7.61516 26.0787ZM58.3819 44.5394H53.7668C53.1548 44.5394 52.5678 44.2962 52.1351 43.8635C51.7023 43.4307 51.4592 42.8438 51.4592 42.2318V28.3863C51.4592 27.7743 51.7023 27.1873 52.1351 26.7546C52.5678 26.3218 53.1548 26.0787 53.7668 26.0787H58.3819C59.6059 26.0787 60.7798 26.565 61.6453 27.4305C62.5109 28.296 62.9971 29.4699 62.9971 30.6939V39.9242C62.9971 41.1482 62.5109 42.3221 61.6453 43.1876C60.7798 44.0531 59.6059 44.5394 58.3819 44.5394Z" stroke="url(#paint0_linear_305_345)" stroke-width="6" stroke-linecap="round" stroke-linejoin="round"/>
<defs>
<linearGradient id="paint0_linear_305_345" x1="47.5014" y1="-8.51353" x2="10.058" y2="-4.07342" gradientUnits="userSpaceOnUse">
<stop stop-color="#4EDFFF"/>
<stop offset="0.5" stop-color="#CB7FC9"/>
<stop offset="1" stop-color="#8250ED"/>
</linearGradient>
</defs>
</svg>
