<svg width="60" height="52" viewBox="0 0 60 52" fill="none" xmlns="http://www.w3.org/2000/svg">
<path d="M42.931 0.137329C37.7353 0.137329 33.1241 2.18819 30 5.71319C26.8759 2.18819 22.2647 0.137329 17.069 0.137329C12.5437 0.142804 8.2053 1.94289 5.00543 5.14276C1.80557 8.34263 0.00547525 12.681 0 17.2063C0 35.9149 27.3647 50.8632 28.5284 51.4916C28.9807 51.7352 29.4863 51.8627 30 51.8627C30.5137 51.8627 31.0193 51.7352 31.4716 51.4916C32.6353 50.8632 60 35.9149 60 17.2063C59.9945 12.681 58.1944 8.34263 54.9946 5.14276C51.7947 1.94289 47.4563 0.142804 42.931 0.137329ZM41.5112 36.9546C37.9093 40.011 34.0589 42.7619 30 45.1787C25.9411 42.7619 22.0907 40.011 18.4888 36.9546C12.8845 32.1468 6.2069 24.8149 6.2069 17.2063C6.2069 14.3255 7.35129 11.5627 9.38832 9.52565C11.4254 7.48862 14.1882 6.34423 17.069 6.34423C21.6724 6.34423 25.5259 8.77526 27.1267 12.6908C27.3597 13.2616 27.7575 13.75 28.2692 14.0939C28.7809 14.4377 29.3835 14.6213 30 14.6213C30.6165 14.6213 31.2191 14.4377 31.7308 14.0939C32.2425 13.75 32.6403 13.2616 32.8733 12.6908C34.4741 8.77526 38.3276 6.34423 42.931 6.34423C45.8118 6.34423 48.5746 7.48862 50.6117 9.52565C52.6487 11.5627 53.7931 14.3255 53.7931 17.2063C53.7931 24.8149 47.1155 32.1468 41.5112 36.9546Z" fill="url(#paint0_linear_305_350)"/>
<defs>
<linearGradient id="paint0_linear_305_350" x1="44.5036" y1="-9.78836" x2="7.23697" y2="-4.66203" gradientUnits="userSpaceOnUse">
<stop stop-color="#4EDFFF"/>
<stop offset="0.5" stop-color="#CB7FC9"/>
<stop offset="1" stop-color="#8250ED"/>
</linearGradient>
</defs>
</svg>
